<svg width="106" height="106" viewBox="0 0 106 106" fill="none" xmlns="http://www.w3.org/2000/svg">
<path d="M0 19.4694C0 8.71674 8.71674 0 19.4694 0H86.5306C97.2833 0 106 8.71674 106 19.4694V86.5306C106 97.2833 97.2833 106 86.5306 106H19.4694C8.71674 106 0 97.2833 0 86.5306V19.4694Z" fill="black"/>
<path d="M32.4118 75.1098C10.3932 47.9971 39.8307 4.30386 75.933 23.232C80.0285 25.3793 79.929 30.9903 76.1474 33.6519C73.8697 35.255 70.8749 35.23 68.3112 34.1409C50.4792 26.5651 34.5018 44.0969 40.0596 59.7227C41.9845 67.8421 53.1151 77.7258 66.1111 73.437C69.2501 72.4011 72.8597 72.7097 75.1736 75.0701C78.2655 78.2241 77.7476 83.479 73.6973 85.2401C53.823 93.8814 36.9527 82.4907 32.4118 75.1098Z" fill="#7C3AED"/>
<path fill-rule="evenodd" clip-rule="evenodd" d="M30.8725 30.7569C40.501 18.1443 57.8714 11.6251 76.812 21.5555C82.4062 24.4885 81.9427 31.8876 77.2369 35.1997C74.2837 37.2783 70.5605 37.153 67.5711 35.883C51.3554 28.9939 36.8012 44.9132 41.843 59.0883L41.8776 59.1856L41.9014 59.286C42.7321 62.7897 45.6463 66.9046 49.948 69.6347C54.1914 72.3278 59.6371 73.5801 65.5179 71.6394C69.0822 70.4632 73.5393 70.6989 76.5254 73.745C80.3422 77.6386 79.9747 84.5747 74.4521 86.9759C64.0169 91.5132 54.3211 90.7981 46.6476 87.9585C39.1125 85.17 33.4254 80.2935 30.8662 76.2088C19.3025 61.8774 21.333 43.2531 30.8725 30.7569ZM33.8817 33.0541C25.2024 44.4233 23.5115 61.1476 33.8812 73.9164L33.9592 74.0125L34.024 74.1179C36.0386 77.3926 41.0237 81.8407 47.9615 84.408C54.827 86.9487 63.5035 87.6083 72.9426 83.5042C75.5206 82.3832 76.1888 78.8095 73.822 76.3951C72.1801 74.7203 69.418 74.3389 66.7043 75.2344C59.5891 77.5825 52.9716 76.0374 47.9194 72.831C42.9622 69.6849 39.3652 64.8465 38.2423 60.2609C32.2676 43.2088 49.6395 24.1517 69.0514 32.3986C71.1893 33.3069 73.4557 33.2317 75.058 32.1039C77.9153 30.0929 77.651 26.2699 75.0541 24.9084C57.8924 15.9106 42.4929 21.774 33.8817 33.0541Z" fill="#7C3AED"/>
<g filter="url(#filter0_d_184_2958)">
<path d="M59.1813 46.9319L40.6666 30.871C37.4932 28.1182 32.7069 28.4399 29.9268 31.5929C27.0732 34.8293 27.4317 39.7917 30.7206 42.58L37.9166 48.6807C41.3563 51.5969 41.7856 56.7654 38.8744 60.2141L32.6147 67.6296C29.9359 70.8031 30.3352 75.5601 33.5052 78.2379C36.6515 80.8957 41.343 80.5026 44.0078 77.3581L60.0589 58.4171C62.9573 54.9969 62.5653 49.8674 59.1813 46.9319Z" fill="url(#paint0_linear_184_2958)"/>
</g>
<g filter="url(#filter1_d_184_2958)">
<path d="M43.1813 47.5803L24.6666 31.8343C21.4932 29.1355 16.7069 29.4509 13.9268 32.5421C11.0732 35.715 11.4317 40.5801 14.7206 43.3137L21.9166 49.2948C25.3563 52.1538 25.7856 57.2209 22.8744 60.602L16.6147 67.8722C13.9359 70.9835 14.3352 75.6472 17.5052 78.2725C20.6515 80.8781 25.343 80.4928 28.0078 77.4099L44.0589 58.8403C46.9573 55.4872 46.5653 50.4583 43.1813 47.5803Z" fill="url(#paint1_linear_184_2958)"/>
</g>
<defs>
<filter id="filter0_d_184_2958" x="17" y="22" width="60" height="77" filterUnits="userSpaceOnUse" color-interpolation-filters="sRGB">
<feFlood flood-opacity="0" result="BackgroundImageFix"/>
<feColorMatrix in="SourceAlpha" type="matrix" values="0 0 0 0 0 0 0 0 0 0 0 0 0 0 0 0 0 0 127 0" result="hardAlpha"/>
<feOffset dx="2" dy="6"/>
<feGaussianBlur stdDeviation="6.5"/>
<feComposite in2="hardAlpha" operator="out"/>
<feColorMatrix type="matrix" values="0 0 0 0 0 0 0 0 0 0 0 0 0 0 0 0 0 0 0.19 0"/>
<feBlend mode="normal" in2="BackgroundImageFix" result="effect1_dropShadow_184_2958"/>
<feBlend mode="normal" in="SourceGraphic" in2="effect1_dropShadow_184_2958" result="shape"/>
</filter>
<filter id="filter1_d_184_2958" x="1" y="23" width="60" height="76" filterUnits="userSpaceOnUse" color-interpolation-filters="sRGB">
<feFlood flood-opacity="0" result="BackgroundImageFix"/>
<feColorMatrix in="SourceAlpha" type="matrix" values="0 0 0 0 0 0 0 0 0 0 0 0 0 0 0 0 0 0 127 0" result="hardAlpha"/>
<feOffset dx="2" dy="6"/>
<feGaussianBlur stdDeviation="6.5"/>
<feComposite in2="hardAlpha" operator="out"/>
<feColorMatrix type="matrix" values="0 0 0 0 0 0 0 0 0 0 0 0 0 0 0 0 0 0 0.19 0"/>
<feBlend mode="normal" in2="BackgroundImageFix" result="effect1_dropShadow_184_2958"/>
<feBlend mode="normal" in="SourceGraphic" in2="effect1_dropShadow_184_2958" result="shape"/>
</filter>
<linearGradient id="paint0_linear_184_2958" x1="28" y1="50.9557" x2="62" y2="50.9557" gradientUnits="userSpaceOnUse">
<stop stop-color="#7C3AED"/>
<stop offset="1" stop-color="#A78BFA"/>
</linearGradient>
<linearGradient id="paint1_linear_184_2958" x1="12" y1="51.5252" x2="46" y2="51.5252" gradientUnits="userSpaceOnUse">
<stop stop-color="#7C3AED"/>
<stop offset="1" stop-color="#A78BFA"/>
</linearGradient>
</defs>
</svg>
