<svg width="200" height="200" viewBox="0 0 200 200" fill="none" xmlns="http://www.w3.org/2000/svg">
<g clip-path="url(#clip0_7_132)">
<path d="M35.4167 1.61203e-05H164.583C169.236 -0.00448106 173.843 0.932018 178.142 2.75592C182.441 4.57981 186.347 7.25531 189.636 10.6293C192.926 14.0032 195.535 18.0094 197.313 22.4186C199.091 26.8277 200.004 31.5533 200 36.3248V163.675C200.004 168.447 199.091 173.172 197.313 177.581C195.535 181.991 192.926 185.997 189.636 189.371C186.347 192.745 182.441 195.42 178.142 197.244C173.843 199.068 169.236 200.004 164.583 200H35.4167C30.7645 200.004 26.1571 199.068 21.8581 197.244C17.5592 195.42 13.6532 192.745 10.3635 189.371C7.07392 185.997 4.46532 181.991 2.68702 177.581C0.908718 173.172 -0.00436903 168.447 1.57173e-05 163.675V36.3248C-0.00436903 31.5533 0.908718 26.8277 2.68702 22.4186C4.46532 18.0094 7.07392 14.0032 10.3635 10.6293C13.6532 7.25531 17.5592 4.57981 21.8581 2.75592C26.1571 0.932018 30.7645 -0.00448106 35.4167 1.61203e-05Z" fill="#659AD2"/>
<path d="M87.069 162.138C52.844 162.138 25 134.294 25 100.069C25 65.844 52.844 38 87.069 38C109.153 38 129.75 49.8844 140.82 69.015L113.958 84.559C108.418 74.9834 98.1136 69.0345 87.069 69.0345C69.9562 69.0345 56.0345 82.9562 56.0345 100.069C56.0345 117.181 69.9562 131.103 87.069 131.103C98.1148 131.103 108.419 125.155 113.96 115.577L140.822 131.12C129.752 150.253 109.155 162.138 87.069 162.138Z" fill="white"/>
<path d="M149.138 96.6205H142.241V89.7241H135.345V96.6205H128.448V103.517H135.345V110.414H142.241V103.517H149.138V96.6205Z" fill="white"/>
<path d="M175 96.6205H168.103V89.7241H161.207V96.6205H154.31V103.517H161.207V110.414H168.103V103.517H175V96.6205Z" fill="white"/>
</g>
<defs>
<clipPath id="clip0_7_132">
<rect width="200" height="200" fill="white"/>
</clipPath>
</defs>
</svg>
