<svg width="200" height="200" viewBox="0 0 200 200" fill="none" xmlns="http://www.w3.org/2000/svg">
<g clip-path="url(#clip0_1_872)">
<path d="M35.4167 1.61203e-05H164.583C169.236 -0.00448106 173.843 0.932018 178.142 2.75592C182.441 4.57981 186.347 7.25531 189.636 10.6293C192.926 14.0032 195.535 18.0094 197.313 22.4186C199.091 26.8277 200.004 31.5533 200 36.3248V163.675C200.004 168.447 199.091 173.172 197.313 177.581C195.535 181.991 192.926 185.997 189.636 189.371C186.347 192.745 182.441 195.42 178.142 197.244C173.843 199.068 169.236 200.004 164.583 200H35.4167C30.7645 200.004 26.157 199.068 21.8581 197.244C17.5592 195.42 13.6532 192.745 10.3635 189.371C7.07392 185.997 4.46532 181.991 2.68702 177.581C0.908717 173.172 -0.00436903 168.447 1.57173e-05 163.675V36.3248C-0.00436903 31.5533 0.908717 26.8277 2.68702 22.4186C4.46532 18.0094 7.07392 14.0032 10.3635 10.6293C13.6532 7.25531 17.5592 4.57981 21.8581 2.75592C26.157 0.932018 30.7645 -0.00448106 35.4167 1.61203e-05Z" fill="#F0F0F0"/>
<path d="M139.372 147.073H138.769V146.735H140.393V147.073H139.794V148.757H139.372V147.073ZM142.612 147.161H142.603L142.005 148.758H141.732L141.138 147.161H141.13V148.758H140.733V146.736H141.318L141.868 148.167L142.417 146.736H143V148.758H142.612V147.161H142.612Z" fill="#E76F00"/>
<path d="M85.3546 105.729C85.3546 105.729 81.1563 108.171 88.3424 108.997C97.0481 109.99 101.497 109.848 111.091 108.032C111.091 108.032 113.614 109.613 117.136 110.983C95.6294 120.201 68.4622 110.449 85.3546 105.729Z" fill="#5382A1"/>
<path d="M82.7265 93.7012C82.7265 93.7012 78.0177 97.1867 85.2091 97.9306C94.5088 98.89 101.853 98.9684 114.561 96.5214C114.561 96.5214 116.319 98.3034 119.083 99.2779C93.0801 106.881 64.1176 99.8775 82.7265 93.7012Z" fill="#5382A1"/>
<path d="M104.881 73.2974C110.181 79.3985 103.489 84.8888 103.489 84.8888C103.489 84.8888 116.945 77.9425 110.765 69.2442C104.994 61.1325 100.568 57.1021 124.528 43.2058C124.528 43.2058 86.918 52.5991 104.881 73.2974Z" fill="#E76F00"/>
<path d="M133.326 114.626C133.326 114.626 136.433 117.186 129.904 119.166C117.49 122.927 78.236 124.063 67.3314 119.316C63.4114 117.611 70.7624 115.244 73.0748 114.748C75.4863 114.225 76.8644 114.322 76.8644 114.322C72.5051 111.251 48.6872 120.352 64.7661 122.959C108.616 130.07 144.7 119.756 133.326 114.626Z" fill="#5382A1"/>
<path d="M87.3734 81.2388C87.3734 81.2388 67.4062 85.9814 80.3025 87.7036C85.7477 88.4326 96.6026 88.2677 106.714 87.4205C114.977 86.7234 123.274 85.2414 123.274 85.2414C123.274 85.2414 120.361 86.4892 118.253 87.9286C97.9763 93.2613 58.8062 90.7805 70.0827 85.3258C79.6194 80.7159 87.3734 81.2388 87.3734 81.2388Z" fill="#5382A1"/>
<path d="M123.192 101.26C143.804 90.5493 134.274 80.2564 127.622 81.6431C125.992 81.9825 125.265 82.2765 125.265 82.2765C125.265 82.2765 125.87 81.3284 127.026 80.9179C140.186 76.2915 150.306 94.5631 122.778 101.8C122.778 101.8 123.097 101.515 123.192 101.26Z" fill="#5382A1"/>
<path d="M110.765 20.7671C110.765 20.7671 122.18 32.1861 99.9384 49.7453C82.1027 63.8308 95.8713 71.862 99.931 81.0379C89.52 71.6446 81.8797 63.3757 87.0054 55.6797C94.5288 44.3827 115.371 38.9055 110.765 20.7671Z" fill="#E76F00"/>
<path d="M89.3988 130.284C109.184 131.55 139.565 129.581 140.285 120.219C140.285 120.219 138.902 123.768 123.934 126.587C107.047 129.764 86.2198 129.393 73.8668 127.357C73.8671 127.356 76.3956 129.45 89.3988 130.284Z" fill="#5382A1"/>
<path d="M86.1564 166.055C84.29 167.674 82.3188 168.582 80.5498 168.582C78.0248 168.582 76.6606 167.068 76.6606 164.64C76.6606 162.013 78.1222 160.093 83.9862 160.093H86.1561V166.055H86.1564ZM91.3064 171.865V153.879C91.3064 149.284 88.6858 146.252 82.3673 146.252C78.6786 146.252 75.4475 147.163 72.8212 148.325L73.5793 151.509C75.647 150.75 78.3236 150.043 80.9507 150.043C84.5905 150.043 86.1564 151.509 86.1564 154.538V156.812H84.3397C75.4963 156.812 71.5071 160.244 71.5071 165.397C71.5071 169.844 74.136 172.371 79.0858 172.371C82.2675 172.371 84.6427 171.058 86.8629 169.136L87.2659 171.866H91.3064V171.865Z" fill="#E76F00"/>
<path d="M108.494 171.865H102.071L94.3403 146.708H99.9496L104.746 162.165L105.813 166.813C108.239 160.092 109.956 153.273 110.814 146.708H116.27C114.809 154.992 112.178 164.085 108.494 171.865Z" fill="#E76F00"/>
<path d="M133.134 166.055C131.265 167.674 129.29 168.582 127.521 168.582C125 168.582 123.633 167.068 123.633 164.64C123.633 162.013 125.098 160.093 130.961 160.093H133.134V166.055ZM138.284 171.865V153.879C138.284 149.284 135.657 146.252 129.346 146.252C125.654 146.252 122.422 147.163 119.797 148.325L120.554 151.509C122.622 150.75 125.304 150.043 127.929 150.043C131.566 150.043 133.134 151.509 133.134 154.538V156.812H131.315C122.469 156.812 118.481 160.244 118.481 165.397C118.481 169.844 121.108 172.371 126.057 172.371C129.241 172.371 131.615 171.058 133.839 169.136L134.243 171.866H138.284V171.865Z" fill="#E76F00"/>
<path d="M65.8602 176.138C64.3921 178.281 62.0208 179.977 59.4248 180.936L56.8821 177.944C58.858 176.93 60.5527 175.293 61.3401 173.768C62.0211 172.411 62.303 170.663 62.303 166.482V137.76H67.7746V166.088C67.7743 171.678 67.3275 173.936 65.8602 176.138Z" fill="#E76F00"/>
</g>
<defs>
<clipPath id="clip0_1_872">
<rect width="200" height="200" fill="white"/>
</clipPath>
</defs>
</svg>
