<svg width="1079" height="267" viewBox="0 0 1079 267" fill="none" xmlns="http://www.w3.org/2000/svg">
<path fill-rule="evenodd" clip-rule="evenodd" d="M81.4025 1.59504C47.6427 8.51714 19.2922 31.8367 6.5544 63.1621C-2.23779 84.7811 -2.17966 114.233 6.69971 137.083C11.5416 149.541 17.2915 157.533 33.9144 174.912C51.5209 193.318 53.5018 196.837 53.5018 209.71C53.5018 220.075 55.234 223.727 61.3094 226.167C65.8851 228.004 133.212 242.606 137.108 242.606C140.778 242.606 144.179 239.457 144.179 236.057C144.179 230.756 141.922 229.816 115.067 223.934C100.707 220.788 84.1844 217.141 78.3485 215.827L67.737 213.44L67.2359 203.904C66.5477 190.805 63.4333 185.538 44.7887 165.951C36.2965 157.03 27.7461 146.801 25.2804 142.612C8.96199 114.89 10.693 76.8704 29.4713 50.5748C46.7685 26.355 76.1827 12.3075 105.792 14.1289C136.188 15.998 163.762 33.3514 177.204 59.0697C190.909 85.2922 190.339 119.266 175.791 143.287C173.47 147.121 165.276 156.797 157.584 164.789C139.472 183.608 133.935 191.909 133.767 200.497C133.703 203.772 133.644 203.771 117.15 199.948L103.49 196.781V163.96V131.138L107.85 128.897C132.013 116.479 123.516 80.9082 96.3863 80.9082C70.1899 80.9082 61.5953 115.82 84.654 128.564L89.5401 131.265V168.169C89.5401 202.78 89.6762 205.197 91.7199 207.045C94.0868 209.185 130.501 218.212 136.765 218.212C139.067 218.212 141.804 217.144 143.717 215.499C146.318 213.265 147.042 211.39 147.83 204.843C149.051 194.711 151.004 191.786 169.165 172.871C185.493 155.867 191.162 147.236 196.609 131.09C199.83 121.543 200.406 118.007 200.882 104.86C201.494 87.9767 199.77 76.3535 194.631 62.7138C183.277 32.5685 154.21 8.57405 120.687 1.6717C110.009 -0.52609 91.921 -0.562094 81.4025 1.59504ZM104.742 98.4754C115.011 108.737 99.7773 123.839 88.7334 114.348C86.0247 112.02 85.4713 110.623 85.4713 106.115C85.4713 101.608 86.0247 100.211 88.7334 97.883C93.5195 93.7697 100.283 94.0195 104.742 98.4754ZM60.7362 238.606C57.5312 240.848 57.3126 246.134 60.3108 248.845C62.3882 250.723 130.762 267 136.576 267C142.541 267 145.359 258.101 140.401 254.923C138.362 253.616 67.594 236.798 64.1331 236.798C63.6856 236.798 62.1568 237.612 60.7362 238.606Z" fill="#5458E2"/>
<path d="M299.736 203C287.228 203 276.506 200.128 267.571 194.384C258.764 188.513 252.574 180.408 249 170.069L264.317 161.262C269.422 177.472 281.356 185.577 300.119 185.577C309.182 185.577 316.138 183.726 320.988 180.025C325.966 176.323 328.455 171.281 328.455 164.899C328.455 158.645 326.03 153.859 321.18 150.54C316.84 147.604 308.735 144.222 296.865 140.393L284.037 136.18C281.229 135.032 277.527 133.372 272.932 131.202C268.465 128.905 265.21 126.607 263.168 124.31C257.552 118.183 254.744 110.716 254.744 101.909C254.744 90.1662 258.828 80.9761 266.997 74.3388C275.166 67.4463 285.122 64 296.865 64C307.331 64 316.521 66.6166 324.435 71.8499C332.348 77.0831 338.283 84.2309 342.24 93.2934L327.306 101.909C321.563 88.124 311.415 81.2314 296.865 81.2314C289.589 81.2314 283.718 83.0184 279.25 86.5923C274.783 90.1662 272.549 95.0165 272.549 101.143C272.549 107.015 274.655 111.482 278.867 114.545C283.207 117.736 290.483 120.927 300.694 124.118L308.544 126.607C312.883 128.267 315.245 129.16 315.627 129.288C319.712 130.82 324.179 132.926 329.03 135.606C332.476 137.521 335.922 140.456 339.368 144.413C343.836 148.881 346.069 155.582 346.069 164.517C346.069 176.259 341.793 185.641 333.242 192.661C324.562 199.554 313.394 203 299.736 203Z" fill="#5458E2"/>
<path d="M468.818 102.292C479.667 102.292 488.347 105.802 494.856 112.822C501.494 119.843 504.812 129.224 504.812 140.967V200.511H488.155V141.541C488.155 134.266 486.241 128.586 482.412 124.501C478.71 120.289 473.604 118.183 467.095 118.183C459.692 118.183 453.884 120.672 449.672 125.65C445.588 130.5 443.546 137.712 443.546 147.285V200.511H426.889V141.541C426.889 134.266 425.038 128.586 421.336 124.501C417.762 120.289 412.848 118.183 406.594 118.183C399.319 118.183 393.383 120.736 388.788 125.842C384.321 130.82 382.087 137.967 382.087 147.285V200.511H365.431V104.781H382.087V117.609C388.597 107.398 398.106 102.292 410.615 102.292C423.506 102.292 432.888 107.717 438.759 118.566C445.396 107.717 455.416 102.292 468.818 102.292Z" fill="#5458E2"/>
<path d="M607.172 121.247V104.781H623.829V200.511H607.172V184.045C599.003 196.682 586.941 203 570.986 203C557.457 203 546.033 198.15 536.715 188.449C527.27 178.621 522.547 166.686 522.547 152.646C522.547 138.733 527.27 126.863 536.715 117.034C546.161 107.206 557.584 102.292 570.986 102.292C586.941 102.292 599.003 108.61 607.172 121.247ZM573.092 186.917C582.793 186.917 590.898 183.663 597.408 177.153C603.917 170.388 607.172 162.219 607.172 152.646C607.172 142.945 603.917 134.84 597.408 128.331C590.898 121.693 582.793 118.375 573.092 118.375C563.52 118.375 555.478 121.693 548.969 128.331C542.459 134.84 539.204 142.945 539.204 152.646C539.204 162.219 542.459 170.388 548.969 177.153C555.478 183.663 563.52 186.917 573.092 186.917Z" fill="#5458E2"/>
<path d="M665.722 104.781V120.864C671.211 108.993 681.167 103.058 695.59 103.058V120.481C687.421 120.098 680.401 122.268 674.529 126.99C668.658 131.713 665.722 139.308 665.722 149.774V200.511H649.065V104.781H665.722Z" fill="#5458E2"/>
<path d="M766.208 104.781V120.864H740.744V172.749C740.744 177.472 741.638 180.854 743.425 182.897C745.339 184.811 748.211 185.832 752.04 185.96C755.869 185.96 760.592 185.832 766.208 185.577V200.511C751.53 202.426 740.808 201.213 734.043 196.873C727.406 192.534 724.087 184.492 724.087 172.749V120.864H705.133V104.781H724.087V82.9546L740.744 77.9766V104.781H766.208Z" fill="#5458E2"/>
<path d="M781.128 133.5C781.128 114.099 787.829 97.697 801.231 84.2948C814.634 70.7649 831.035 64 850.436 64C869.837 64 886.239 70.7649 899.641 84.2948C913.171 97.697 919.936 114.099 919.936 133.5C919.936 152.774 913.171 169.175 899.641 182.705C886.239 196.235 869.837 203 850.436 203C831.035 203 814.634 196.235 801.231 182.705C787.829 169.048 781.128 152.646 781.128 133.5ZM902.13 133.5C902.13 118.694 897.152 106.313 887.196 96.3568C877.496 86.2732 865.242 81.2314 850.436 81.2314C835.758 81.2314 823.441 86.2732 813.485 96.3568C803.657 106.44 798.742 118.821 798.742 133.5C798.742 148.051 803.657 160.432 813.485 170.643C823.441 180.599 835.758 185.577 850.436 185.577C865.242 185.577 877.496 180.599 887.196 170.643C897.152 160.432 902.13 148.051 902.13 133.5Z" fill="#5458E2"/>
<path d="M1043.01 102.292C1053.86 102.292 1062.53 105.802 1069.04 112.822C1075.68 119.843 1079 129.224 1079 140.967V200.511H1062.34V141.541C1062.34 134.266 1060.43 128.586 1056.6 124.501C1052.9 120.289 1047.79 118.183 1041.28 118.183C1033.88 118.183 1028.07 120.672 1023.86 125.65C1019.78 130.5 1017.73 137.712 1017.73 147.285V200.511H1001.08V141.541C1001.08 134.266 999.226 128.586 995.524 124.501C991.95 120.289 987.036 118.183 980.782 118.183C973.506 118.183 967.571 120.736 962.976 125.842C958.509 130.82 956.275 137.967 956.275 147.285V200.511H939.618V104.781H956.275V117.609C962.785 107.398 972.294 102.292 984.803 102.292C997.694 102.292 1007.08 107.717 1012.95 118.566C1019.58 107.717 1029.6 102.292 1043.01 102.292Z" fill="#5458E2"/>
</svg>
