<svg width="215" height="59" viewBox="0 0 215 59" fill="none" xmlns="http://www.w3.org/2000/svg">
<path fill-rule="evenodd" clip-rule="evenodd" d="M17.8194 0.352462C10.4292 1.88206 4.22317 7.03507 1.43479 13.9572C-0.489864 18.7344 -0.47714 25.2425 1.4666 30.2918C2.52653 33.0447 3.7852 34.8108 7.42406 38.6511C11.2782 42.7183 11.7118 43.4958 11.7118 46.3404C11.7118 48.6308 12.091 49.4379 13.421 49.9769C14.4226 50.383 29.1607 53.6096 30.0138 53.6096C30.8172 53.6096 31.5615 52.9137 31.5615 52.1623C31.5615 50.9911 31.0676 50.7834 25.1888 49.4836C22.0454 48.7884 18.4284 47.9824 17.1509 47.6921L14.828 47.1646L14.7183 45.0575C14.5677 42.1628 13.8859 40.999 9.80449 36.6707C7.94549 34.6996 6.07377 32.4392 5.53401 31.5136C1.96183 25.3877 2.34075 16.9863 6.45142 11.1757C10.2379 5.82376 16.6768 2.71964 23.1585 3.12212C29.8122 3.53513 35.8483 7.36979 38.7909 13.0529C41.791 18.8473 41.6663 26.3547 38.4817 31.6627C37.9735 32.5098 36.1799 34.648 34.496 36.414C30.5311 40.5726 29.319 42.4069 29.2824 44.3046C29.2684 45.0282 29.2554 45.028 25.6448 44.1832L22.6546 43.4835V36.2308V28.978L23.6089 28.4829C28.8984 25.7389 27.0384 17.8786 21.0995 17.8786C15.365 17.8786 13.4836 25.5931 18.5312 28.4092L19.6008 29.006V37.161C19.6008 44.809 19.6306 45.3432 20.078 45.7516C20.5961 46.2244 28.5673 48.2191 29.9387 48.2191C30.4426 48.2191 31.0416 47.9832 31.4605 47.6197C32.0298 47.1259 32.1883 46.7116 32.3609 45.2649C32.6281 43.0261 33.0556 42.3797 37.0312 38.2001C40.6054 34.4424 41.8465 32.5352 43.0387 28.9675C43.7439 26.8578 43.8699 26.0764 43.9742 23.1712C44.1081 19.4405 43.7307 16.8721 42.6059 13.8581C40.1203 7.19679 33.7575 1.89464 26.4189 0.369401C24.0815 -0.116252 20.122 -0.124208 17.8194 0.352462ZM22.9287 21.7605C25.1766 24.0281 21.8418 27.3653 19.4242 25.2679C18.8313 24.7535 18.7101 24.4447 18.7101 23.4487C18.7101 22.4528 18.8313 22.144 19.4242 21.6296C20.4719 20.7206 21.9525 20.7758 22.9287 21.7605ZM13.2955 52.7258C12.5939 53.2212 12.546 54.3891 13.2024 54.9882C13.6571 55.4033 28.6246 59 29.8972 59C31.203 59 31.8198 57.0335 30.7345 56.3312C30.2881 56.0424 14.7967 52.3261 14.0391 52.3261C13.9411 52.3261 13.6065 52.5061 13.2955 52.7258Z" fill="white"/>
<path d="M69.4749 42C67.1389 42 65.1367 41.4835 63.4682 40.4504C61.8235 39.3944 60.6674 37.9366 60 36.0771L62.8603 34.4931C63.8138 37.4086 66.0425 38.8664 69.5464 38.8664C71.2388 38.8664 72.5378 38.5335 73.4436 37.8678C74.3732 37.202 74.838 36.2952 74.838 35.1474C74.838 34.0225 74.3851 33.1616 73.4794 32.5647C72.6689 32.0367 71.1553 31.4284 68.9386 30.7397L66.543 29.9821C66.0186 29.7755 65.3274 29.477 64.4693 29.0868C63.635 28.6736 63.0272 28.2603 62.6458 27.8471C61.597 26.7452 61.0726 25.4022 61.0726 23.8182C61.0726 21.7062 61.8354 20.0533 63.3609 18.8595C64.8864 17.6198 66.7456 17 68.9386 17C70.8931 17 72.6093 17.4706 74.0872 18.4118C75.565 19.3531 76.6734 20.6387 77.4123 22.2686L74.6235 23.8182C73.5509 21.3388 71.6559 20.0992 68.9386 20.0992C67.5799 20.0992 66.4834 20.4206 65.6492 21.0634C64.8149 21.7062 64.3978 22.5785 64.3978 23.6804C64.3978 24.7365 64.7911 25.5399 65.5777 26.0909C66.3881 26.6648 67.7468 27.2388 69.6536 27.8127L71.1196 28.2603C71.93 28.5588 72.371 28.7195 72.4425 28.7424C73.2052 29.0179 74.0395 29.3967 74.9453 29.8788C75.5889 30.2231 76.2324 30.7511 76.876 31.4628C77.7103 32.2663 78.1274 33.4715 78.1274 35.0785C78.1274 37.1905 77.3289 38.8779 75.7319 40.1405C74.111 41.3802 72.0253 42 69.4749 42Z" fill="white"/>
<path d="M101.05 23.8871C103.076 23.8871 104.697 24.5184 105.913 25.781C107.152 27.0436 107.772 28.7309 107.772 30.843V41.5523H104.662V30.9463C104.662 29.6377 104.304 28.6162 103.589 27.8815C102.898 27.124 101.944 26.7452 100.729 26.7452C99.3461 26.7452 98.2615 27.1928 97.4749 28.0882C96.7122 28.9605 96.3308 30.2576 96.3308 31.9793V41.5523H93.2202V30.9463C93.2202 29.6377 92.8745 28.6162 92.1833 27.8815C91.5159 27.124 90.5982 26.7452 89.4302 26.7452C88.0716 26.7452 86.9632 27.2043 86.1051 28.1226C85.2708 29.0179 84.8537 30.3035 84.8537 31.9793V41.5523H81.7431V24.3347H84.8537V26.6419C86.0693 24.8053 87.8451 23.8871 90.1811 23.8871C92.5885 23.8871 94.3405 24.8627 95.4369 26.8141C96.6764 24.8627 98.5476 23.8871 101.05 23.8871Z" fill="white"/>
<path d="M126.888 27.2961V24.3347H129.998V41.5523H126.888V38.5909C125.362 40.8636 123.11 42 120.13 42C117.603 42 115.47 41.1276 113.73 39.3829C111.966 37.6152 111.084 35.4688 111.084 32.9435C111.084 30.4412 111.966 28.3062 113.73 26.5386C115.494 24.7709 117.627 23.8871 120.13 23.8871C123.11 23.8871 125.362 25.0234 126.888 27.2961ZM120.523 39.1074C122.335 39.1074 123.848 38.522 125.064 37.3512C126.28 36.1345 126.888 34.6653 126.888 32.9435C126.888 31.1988 126.28 29.741 125.064 28.5702C123.848 27.3765 122.335 26.7796 120.523 26.7796C118.736 26.7796 117.234 27.3765 116.018 28.5702C114.803 29.741 114.195 31.1988 114.195 32.9435C114.195 34.6653 114.803 36.1345 116.018 37.3512C117.234 38.522 118.736 39.1074 120.523 39.1074Z" fill="white"/>
<path d="M137.822 24.3347V27.2273C138.847 25.0923 140.706 24.0248 143.399 24.0248V27.1584C141.874 27.0895 140.563 27.4798 139.466 28.3292C138.37 29.1786 137.822 30.5445 137.822 32.427V41.5523H134.711V24.3347H137.822Z" fill="white"/>
<path d="M156.587 24.3347V27.2273H151.832V36.5592C151.832 37.4086 151.999 38.017 152.332 38.3843C152.69 38.7287 153.226 38.9123 153.941 38.9353C154.656 38.9353 155.538 38.9123 156.587 38.8664V41.5523C153.846 41.8967 151.844 41.6786 150.58 40.8981C149.341 40.1175 148.721 38.6713 148.721 36.5592V27.2273H145.181V24.3347H148.721V20.4091L151.832 19.5138V24.3347H156.587Z" fill="white"/>
<path d="M159.373 29.5C159.373 26.0106 160.625 23.0606 163.128 20.6501C165.63 18.2167 168.693 17 172.316 17C175.939 17 179.002 18.2167 181.505 20.6501C184.032 23.0606 185.295 26.0106 185.295 29.5C185.295 32.9665 184.032 35.9164 181.505 38.3499C179.002 40.7833 175.939 42 172.316 42C168.693 42 165.63 40.7833 163.128 38.3499C160.625 35.8935 159.373 32.9435 159.373 29.5ZM181.97 29.5C181.97 26.837 181.04 24.6102 179.181 22.8196C177.37 21.006 175.081 20.0992 172.316 20.0992C169.575 20.0992 167.275 21.006 165.416 22.8196C163.58 24.6332 162.663 26.86 162.663 29.5C162.663 32.1171 163.58 34.3439 165.416 36.1804C167.275 37.9711 169.575 38.8664 172.316 38.8664C175.081 38.8664 177.37 37.9711 179.181 36.1804C181.04 34.3439 181.97 32.1171 181.97 29.5Z" fill="white"/>
<path d="M208.278 23.8871C210.304 23.8871 211.925 24.5184 213.141 25.781C214.38 27.0436 215 28.7309 215 30.843V41.5523H211.889V30.9463C211.889 29.6377 211.532 28.6162 210.817 27.8815C210.126 27.124 209.172 26.7452 207.956 26.7452C206.574 26.7452 205.489 27.1928 204.703 28.0882C203.94 28.9605 203.559 30.2576 203.559 31.9793V41.5523H200.448V30.9463C200.448 29.6377 200.102 28.6162 199.411 27.8815C198.744 27.124 197.826 26.7452 196.658 26.7452C195.299 26.7452 194.191 27.2043 193.333 28.1226C192.499 29.0179 192.082 30.3035 192.082 31.9793V41.5523H188.971V24.3347H192.082V26.6419C193.297 24.8053 195.073 23.8871 197.409 23.8871C199.816 23.8871 201.568 24.8627 202.665 26.8141C203.904 24.8627 205.775 23.8871 208.278 23.8871Z" fill="white"/>
</svg>
