<svg width="127" height="49" viewBox="0 0 127 49" fill="none" xmlns="http://www.w3.org/2000/svg">
<path d="M20.11 27.1943C10.5303 15.3983 23.3378 -3.61136 39.0449 4.62377C40.8267 5.55797 40.7834 7.99917 39.1382 9.15715C38.1472 9.85465 36.8442 9.84375 35.7289 9.3699C27.9706 6.07389 21.0193 13.7015 23.4373 20.4998C24.2748 24.0324 29.1174 28.3325 34.7716 26.4665C36.1373 26.0159 37.7078 26.1501 38.7145 27.1771C40.0597 28.5493 39.8344 30.8356 38.0722 31.6018C29.4254 35.3614 22.0856 30.4056 20.11 27.1943Z" fill="#7C3AED"/>
<path d="M39.0449 4.62377L38.3484 5.95225L38.3484 5.95225L39.0449 4.62377ZM20.11 27.1943L21.3876 26.4083L21.3362 26.3248L21.2744 26.2487L20.11 27.1943ZM38.0722 31.6018L38.6703 32.9774L38.6703 32.9774L38.0722 31.6018ZM34.7716 26.4665L35.2417 27.891L34.7716 26.4665ZM23.4373 20.4998L24.8969 20.1538L24.878 20.0742L24.8506 19.9972L23.4373 20.4998ZM35.7289 9.3699L35.1423 10.7505L35.7289 9.3699ZM38.7145 27.1771L39.7857 26.127L39.7857 26.127L38.7145 27.1771ZM39.1382 9.15715L38.2748 7.93051L38.2748 7.93052L39.1382 9.15715ZM39.7414 3.29528C31.183 -1.19181 23.2735 1.76169 18.9026 7.48719C14.5857 13.1421 13.649 21.6179 18.9456 28.1399L21.2744 26.2487C16.9914 20.9748 17.6686 14.0477 21.2872 9.30757C24.8519 4.63801 31.1996 2.20422 38.3484 5.95225L39.7414 3.29528ZM18.8324 27.9803C20.0229 29.9154 22.6432 32.1512 26.0688 33.4189C29.5517 34.7077 33.9522 35.0288 38.6703 32.9774L37.4741 30.2262C33.5454 31.9343 29.9526 31.6573 27.11 30.6054C24.2101 29.5322 22.1727 27.6845 21.3876 26.4083L18.8324 27.9803ZM34.3016 25.0421C31.9636 25.8137 29.8037 25.3211 28.102 24.2411C26.3541 23.1318 25.2112 21.4795 24.8969 20.1538L21.9778 20.8459C22.501 23.0527 24.1981 25.3167 26.4944 26.7741C28.837 28.2608 31.9255 28.9854 35.2417 27.891L34.3016 25.0421ZM24.8506 19.9972C22.8415 14.3484 28.665 7.99863 35.1423 10.7505L36.3154 7.98932C27.2763 4.14915 19.1971 13.0545 22.0241 21.0025L24.8506 19.9972ZM39.7857 26.127C38.2463 24.5567 36.0042 24.4802 34.3016 25.0421L35.2417 27.891C36.2704 27.5515 37.1692 27.7435 37.6433 28.2271L39.7857 26.127ZM37.6433 28.2271C37.9939 28.5847 38.1205 29.0414 38.071 29.4243C38.0244 29.785 37.8307 30.0711 37.4741 30.2262L38.6703 32.9774C41.5992 31.7038 41.7054 28.0853 39.7857 26.127L37.6433 28.2271ZM40.0015 10.3838C42.3792 8.71029 42.7109 4.85216 39.7414 3.29528L38.3484 5.95225C38.7096 6.14165 38.8741 6.45378 38.8767 6.81729C38.8795 7.20363 38.69 7.63832 38.2748 7.93051L40.0015 10.3838ZM38.2748 7.93052C37.8191 8.25128 37.0934 8.31986 36.3154 7.98932L35.1423 10.7505C36.5951 11.3676 38.4753 11.458 40.0015 10.3838L38.2748 7.93052Z" fill="#7C3AED"/>
<g filter="url(#filter0_d_64_5589)">
<path d="M27.6706 11.5814L23.5889 8.0575C22.212 6.86875 20.1353 7.00769 18.929 8.36926C17.6908 9.76679 17.8463 11.9097 19.2734 13.1138L20.931 14.5124C23.2318 16.4537 23.5189 19.8944 21.5717 22.1902L20.0953 23.931C18.9329 25.3014 19.1062 27.3556 20.4816 28.5119C21.8468 29.6596 23.8824 29.4899 25.0387 28.132L28.6186 23.9277C31.7492 20.251 31.3258 14.737 27.6706 11.5814Z" fill="url(#paint0_linear_64_5589)"/>
</g>
<g filter="url(#filter1_d_64_5589)">
<path d="M20.9997 11.7416L16.918 8.21765C15.5411 7.02891 13.4644 7.16784 12.2581 8.52941C11.0199 9.92695 11.1755 12.0699 12.6025 13.274L14.2601 14.6726C16.5609 16.6139 16.848 20.0545 14.9008 22.3504L13.4244 24.0911C12.262 25.4615 12.4353 27.5157 13.8107 28.6721C15.1759 29.8198 17.2115 29.65 18.3678 28.2921L21.9477 24.0878C25.0783 20.4112 24.6549 14.8972 20.9997 11.7416Z" fill="url(#paint1_linear_64_5589)"/>
</g>
<path d="M58.8836 27.6114C57.1128 27.6114 55.5926 27.2341 54.323 26.4796C53.0534 25.7083 52.0761 24.6435 51.3912 23.2853C50.7062 21.9103 50.3638 20.3257 50.3638 18.5316C50.3638 16.7374 50.7062 15.1528 51.3912 13.7778C52.0761 12.4029 53.0534 11.3297 54.323 10.5584C55.5926 9.78707 57.1128 9.40141 58.8836 9.40141C60.9885 9.40141 62.7092 9.9296 64.0456 10.986C65.3988 12.0256 66.2424 13.4928 66.5765 15.3876H63.0433C62.8261 14.4318 62.3584 13.6856 61.64 13.1491C60.9384 12.5957 60.0029 12.319 58.8335 12.319C57.2131 12.319 55.9434 12.8724 55.0246 13.9791C54.1058 15.0858 53.6464 16.6033 53.6464 18.5316C53.6464 20.4599 54.1058 21.9774 55.0246 23.0841C55.9434 24.174 57.2131 24.7189 58.8335 24.7189C60.0029 24.7189 60.9384 24.4674 61.64 23.9644C62.3584 23.4446 62.8261 22.7319 63.0433 21.8265H66.5765C66.2424 23.6374 65.3988 25.0543 64.0456 26.0772C62.7092 27.1 60.9885 27.6114 58.8836 27.6114Z" fill="white"/>
<path d="M69.3406 27.3096V9.2002H72.5481V16.7458C72.9657 16.0583 73.5254 15.5217 74.227 15.1361C74.9453 14.7336 75.7639 14.5324 76.6827 14.5324C78.2196 14.5324 79.4057 15.0187 80.241 15.9912C81.093 16.9638 81.519 18.389 81.519 20.2671V27.3096H78.3366V20.5689C78.3366 19.4957 78.1194 18.6741 77.685 18.104C77.2674 17.5339 76.5992 17.2488 75.6804 17.2488C74.7783 17.2488 74.0265 17.5674 73.4251 18.2046C72.8404 18.8418 72.5481 19.7305 72.5481 20.8707V27.3096H69.3406Z" fill="white"/>
<path d="M90.6252 27.6114C89.3722 27.6114 88.2613 27.3431 87.2924 26.8066C86.3235 26.27 85.5634 25.5154 85.0121 24.5429C84.4608 23.5703 84.1852 22.4469 84.1852 21.1725C84.1852 19.8814 84.4524 18.7328 84.987 17.7267C85.5383 16.7206 86.2901 15.9409 87.2423 15.3876C88.2112 14.8175 89.3472 14.5324 90.6502 14.5324C91.8697 14.5324 92.9472 14.8007 93.8827 15.3373C94.8183 15.8738 95.545 16.6116 96.0628 17.5506C96.5974 18.4729 96.8647 19.5041 96.8647 20.6443C96.8647 20.8288 96.8563 21.0216 96.8396 21.2228C96.8396 21.424 96.8313 21.6336 96.8146 21.8516H87.3676C87.4344 22.8242 87.7685 23.5871 88.3699 24.1405C88.988 24.6938 89.7314 24.9705 90.6001 24.9705C91.2516 24.9705 91.7945 24.8279 92.2289 24.5429C92.6799 24.2411 93.0141 23.8554 93.2312 23.3859H96.4888C96.2549 24.174 95.8624 24.895 95.3111 25.549C94.7765 26.1861 94.1083 26.6892 93.3064 27.0581C92.5212 27.427 91.6275 27.6114 90.6252 27.6114ZM90.6502 17.1482C89.8651 17.1482 89.1718 17.3746 88.5704 17.8273C87.969 18.2633 87.5847 18.934 87.4177 19.8395H93.6071C93.557 19.0178 93.2563 18.3639 92.705 17.8776C92.1537 17.3913 91.4688 17.1482 90.6502 17.1482Z" fill="white"/>
<path d="M105.652 27.6114C104.382 27.6114 103.263 27.3347 102.294 26.7814C101.325 26.2281 100.556 25.4567 99.9884 24.4674C99.4371 23.4781 99.1614 22.3463 99.1614 21.0719C99.1614 19.7975 99.4371 18.6657 99.9884 17.6764C100.556 16.6871 101.325 15.9158 102.294 15.3624C103.263 14.8091 104.382 14.5324 105.652 14.5324C107.239 14.5324 108.575 14.9516 109.661 15.79C110.747 16.6116 111.44 17.7519 111.741 19.2107H108.358C108.191 18.607 107.857 18.1375 107.356 17.8022C106.871 17.45 106.295 17.274 105.627 17.274C104.741 17.274 103.989 17.6093 103.371 18.28C102.753 18.9508 102.444 19.8814 102.444 21.0719C102.444 22.2624 102.753 23.1931 103.371 23.8638C103.989 24.5345 104.741 24.8699 105.627 24.8699C106.295 24.8699 106.871 24.7022 107.356 24.3668C107.857 24.0315 108.191 23.5536 108.358 22.9332H111.741C111.44 24.3417 110.747 25.4735 109.661 26.3287C108.575 27.1838 107.239 27.6114 105.652 27.6114Z" fill="white"/>
<path d="M114.588 27.3096V9.2002H117.795V19.8898L122.205 14.8342H126.014L120.927 20.5186L126.841 27.3096H122.832L117.795 21.0468V27.3096H114.588Z" fill="white"/>
<defs>
<filter id="filter0_d_64_5589" x="7.09302" y="0.249512" width="38.6221" height="48.0234" filterUnits="userSpaceOnUse" color-interpolation-filters="sRGB">
<feFlood flood-opacity="0" result="BackgroundImageFix"/>
<feColorMatrix in="SourceAlpha" type="matrix" values="0 0 0 0 0 0 0 0 0 0 0 0 0 0 0 0 0 0 127 0" result="hardAlpha"/>
<feOffset dx="2" dy="6"/>
<feGaussianBlur stdDeviation="6.5"/>
<feComposite in2="hardAlpha" operator="out"/>
<feColorMatrix type="matrix" values="0 0 0 0 0 0 0 0 0 0 0 0 0 0 0 0 0 0 0.19 0"/>
<feBlend mode="normal" in2="BackgroundImageFix" result="effect1_dropShadow_64_5589"/>
<feBlend mode="normal" in="SourceGraphic" in2="effect1_dropShadow_64_5589" result="shape"/>
</filter>
<filter id="filter1_d_64_5589" x="0.422119" y="0.409668" width="38.6221" height="48.0234" filterUnits="userSpaceOnUse" color-interpolation-filters="sRGB">
<feFlood flood-opacity="0" result="BackgroundImageFix"/>
<feColorMatrix in="SourceAlpha" type="matrix" values="0 0 0 0 0 0 0 0 0 0 0 0 0 0 0 0 0 0 127 0" result="hardAlpha"/>
<feOffset dx="2" dy="6"/>
<feGaussianBlur stdDeviation="6.5"/>
<feComposite in2="hardAlpha" operator="out"/>
<feColorMatrix type="matrix" values="0 0 0 0 0 0 0 0 0 0 0 0 0 0 0 0 0 0 0.19 0"/>
<feBlend mode="normal" in2="BackgroundImageFix" result="effect1_dropShadow_64_5589"/>
<feBlend mode="normal" in="SourceGraphic" in2="effect1_dropShadow_64_5589" result="shape"/>
</filter>
<linearGradient id="paint0_linear_64_5589" x1="16.6709" y1="16.5349" x2="34.2757" y2="16.5349" gradientUnits="userSpaceOnUse">
<stop stop-color="#7C3AED"/>
<stop offset="1" stop-color="#A78BFA"/>
</linearGradient>
<linearGradient id="paint1_linear_64_5589" x1="10" y1="16.6951" x2="27.6048" y2="16.6951" gradientUnits="userSpaceOnUse">
<stop stop-color="#7C3AED"/>
<stop offset="1" stop-color="#A78BFA"/>
</linearGradient>
</defs>
</svg>
